<svg width="48" height="48" viewBox="0 0 48 48" fill="none" xmlns="http://www.w3.org/2000/svg">
    <path d="M18.5 23.4288H5C14.7714 27.837 18.0714 35.6464 18.5 39V23.4288Z" fill="#31363F" />
    <path d="M18.5 23.4288H32C22.2286 27.837 18.9286 35.6464 18.5 39V23.4288Z" fill="#31363F" />
    <path d="M18.5 23.5712H5C14.7714 19.163 18.0714 11.3536 18.5 8V23.5712Z" fill="#31363F" />
    <path d="M18.5 23.5712H32C22.2286 19.163 18.9286 11.3536 18.5 8V23.5712Z" fill="#31363F" />
    <path d="M36.5 10.4655H30C34.7048 12.5986 36.2937 16.3773 36.5 18V10.4655Z" fill="#31363F" />
    <path d="M36.5 10.4655H43C38.2952 12.5986 36.7063 16.3773 36.5 18V10.4655Z" fill="#31363F" />
    <path d="M36.5 10.5345H30C34.7048 8.40144 36.2937 4.62273 36.5 3V10.5345Z" fill="#31363F" />
    <path d="M36.5 10.5345H43C38.2952 8.40144 36.7063 4.62273 36.5 3V10.5345Z" fill="#31363F" />
    <path d="M36.5 35.4655H30C34.7048 37.5986 36.2937 41.3773 36.5 43V35.4655Z" fill="#31363F" />
    <path d="M36.5 35.4655H43C38.2952 37.5986 36.7063 41.3773 36.5 43V35.4655Z" fill="#31363F" />
    <path d="M36.5 35.5345H30C34.7048 33.4014 36.2937 29.6227 36.5 28V35.5345Z" fill="#31363F" />
    <path d="M36.5 35.5345H43C38.2952 33.4014 36.7063 29.6227 36.5 28V35.5345Z" fill="#31363F" />
</svg>