<svg width="24" height="24" viewBox="0 0 24 24" fill="none" xmlns="http://www.w3.org/2000/svg">
<circle cx="12" cy="12" r="9.25" stroke="#5BB600" stroke-width="1.5"/>
<path d="M16.3482 7.42868C16.6638 6.97544 17.287 6.86384 17.7403 7.17942C18.1935 7.495 18.3051 8.11825 17.9895 8.57149L12.8469 15.9575C12.5313 16.4107 11.9081 16.5223 11.4548 16.2068C11.0016 15.8912 10.89 15.2679 11.2056 14.8147L16.3482 7.42868Z" fill="#5BB600"/>
<path d="M6.50017 13.8401C6.02187 13.5639 5.858 12.9523 6.13414 12.474C6.41028 11.9958 7.02187 11.8319 7.50017 12.108L11.7861 14.5825C12.2644 14.8586 12.4282 15.4702 12.1521 15.9485C11.876 16.4268 11.2644 16.5907 10.7861 16.3145L6.50017 13.8401Z" fill="#5BB600"/>
<path d="M12.6341 16.108C12.6341 16.3842 12.1864 16.608 11.6341 16.608C11.0819 16.608 10.6341 16.3842 10.6341 16.108C10.6341 15.8319 11.0819 15.608 11.6341 15.608C12.1864 15.608 12.6341 15.8319 12.6341 16.108Z" fill="#5BB600"/>
</svg>
