<svg width="40" height="40" viewBox="0 0 40 40" fill="none" xmlns="http://www.w3.org/2000/svg">
<path d="M16.18 24.7829L31.8985 9.27125C33.1832 8.00339 35.2406 7.97862 36.5556 9.21517C38.1705 10.8689 38.108 13.5277 36.4171 15.1036L20.42 30.0132L13 32.1053C13 32.1053 15.12 26.875 16.18 24.7829Z" stroke="#040404" stroke-width="1.5"/>
<path fill-rule="evenodd" clip-rule="evenodd" d="M9 6.5H29C30.0398 6.5 30.9736 6.9534 31.6147 7.67328L32.7235 6.66299C31.8081 5.64221 30.4791 5 29 5H9C6.23858 5 4 7.23858 4 10V32C4 34.7614 6.23858 37 9 37H29C31.7614 37 34 34.7614 34 32V19.9444L32.5 21.2778V32C32.5 33.933 30.933 35.5 29 35.5H9C7.067 35.5 5.5 33.933 5.5 32V10C5.5 8.067 7.067 6.5 9 6.5Z" fill="black"/>
</svg>
