<svg width="50" height="50" viewBox="0 0 50 50" fill="none" xmlns="http://www.w3.org/2000/svg">
<circle cx="28.9279" cy="15.0721" r="7.32214" stroke="white" stroke-width="1.5"/>
<mask id="path-2-inside-1_262_1333" fill="white">
<path fill-rule="evenodd" clip-rule="evenodd" d="M28.6289 9.39178C28.2986 9.39178 28.0309 9.65949 28.0309 9.98972V13.7373C28.2068 13.6575 28.4111 13.6118 28.6289 13.6118C28.8467 13.6118 29.0509 13.6575 29.2268 13.7373V9.98972C29.2268 9.65949 28.9591 9.39178 28.6289 9.39178Z"/>
</mask>
<path d="M28.0309 13.7373H26.0309V16.8407L28.8572 15.5586L28.0309 13.7373ZM29.2268 13.7373L28.4006 15.5586L31.2268 16.8407V13.7373H29.2268ZM30.0309 9.98972C30.0309 10.7641 29.4032 11.3918 28.6289 11.3918V7.39178C27.1941 7.39178 26.0309 8.55493 26.0309 9.98972H30.0309ZM30.0309 13.7373V9.98972H26.0309V13.7373H30.0309ZM28.8572 15.5586C28.7667 15.5997 28.6885 15.6118 28.6289 15.6118V11.6118C28.1336 11.6118 27.6469 11.7153 27.2047 11.9159L28.8572 15.5586ZM28.6289 15.6118C28.5693 15.6118 28.491 15.5997 28.4006 15.5586L30.053 11.9159C29.6108 11.7153 29.1241 11.6118 28.6289 11.6118V15.6118ZM27.2268 9.98972V13.7373H31.2268V9.98972H27.2268ZM28.6289 11.3918C27.8545 11.3918 27.2268 10.7641 27.2268 9.98972H31.2268C31.2268 8.55492 30.0637 7.39178 28.6289 7.39178V11.3918Z" fill="white" mask="url(#path-2-inside-1_262_1333)"/>
<mask id="path-4-inside-2_262_1333" fill="white">
<path fill-rule="evenodd" clip-rule="evenodd" d="M31.1259 17.5591C31.3773 17.345 31.4076 16.9676 31.1936 16.7162L29.5453 14.7802C29.5434 14.7778 29.5414 14.7755 29.5394 14.7733C29.4429 14.9313 29.3089 15.0888 29.1431 15.23C28.9772 15.3712 28.8003 15.4784 28.6289 15.5484C28.6308 15.5507 28.6328 15.5531 28.6348 15.5554L30.283 17.4914C30.4971 17.7428 30.8744 17.7731 31.1259 17.5591Z"/>
</mask>
<path d="M31.1936 16.7162L29.6707 18.0127L31.1936 16.7162ZM29.5453 14.7802L31.0682 13.4837L29.5453 14.7802ZM29.5394 14.7733L31.0426 13.4541L29.2488 11.41L27.8322 13.7314L29.5394 14.7733ZM28.6289 15.5484L27.8729 13.6968L25.355 14.7248L27.0867 16.8219L28.6289 15.5484ZM29.6707 18.0127C29.1687 17.4231 29.2398 16.5382 29.8294 16.0362L32.4224 19.0819C33.5149 18.1518 33.6465 16.5122 32.7164 15.4197L29.6707 18.0127ZM28.0225 16.0767L29.6707 18.0127L32.7164 15.4197L31.0682 13.4837L28.0225 16.0767ZM28.0361 16.0924C28.0315 16.0872 28.027 16.0819 28.0225 16.0767L31.0682 13.4837C31.0598 13.4737 31.0512 13.4639 31.0426 13.4541L28.0361 16.0924ZM27.8322 13.7314C27.8441 13.7119 27.852 13.7026 27.8533 13.701C27.8549 13.6992 27.8528 13.7019 27.8466 13.7071L30.4396 16.7529C30.7556 16.4838 31.0321 16.1665 31.2466 15.8151L27.8322 13.7314ZM27.8466 13.7071C27.8404 13.7124 27.8375 13.714 27.8395 13.7128C27.8412 13.7117 27.8517 13.7054 27.8729 13.6968L29.3849 17.4C29.7661 17.2443 30.1235 17.022 30.4396 16.7529L27.8466 13.7071ZM30.1576 14.2589C30.1621 14.2642 30.1666 14.2695 30.171 14.2749L27.0867 16.8219C27.095 16.8319 27.1034 16.8419 27.1119 16.8519L30.1576 14.2589ZM31.8059 16.1949L30.1576 14.2589L27.1119 16.8519L28.7601 18.7879L31.8059 16.1949ZM29.8294 16.0362C30.419 15.5342 31.3039 15.6053 31.8059 16.1949L28.7601 18.7879C29.6902 19.8804 31.3299 20.012 32.4224 19.0819L29.8294 16.0362Z" fill="white" mask="url(#path-4-inside-2_262_1333)"/>
<circle cx="28.6289" cy="14.7731" r="1" fill="white" stroke="white" stroke-width="0.391745"/>
<mask id="path-7-inside-3_262_1333" fill="white">
<path d="M31.2325 27.5C31.6564 27.5 32.0036 27.8443 31.9654 28.2665C31.8517 29.5219 31.4598 30.7398 30.8144 31.8301C30.0383 33.1411 28.9241 34.2194 27.5883 34.9522C26.2526 35.685 24.7445 36.0453 23.2218 35.9954C21.6991 35.9456 20.2178 35.4874 18.9328 34.6688C17.6479 33.8501 16.6066 32.7012 15.918 31.3422C15.2293 29.9833 14.9185 28.4641 15.0182 26.9439C15.1179 25.4236 15.6243 23.9581 16.4846 22.7007C17.1999 21.655 18.1381 20.7851 19.2279 20.1516C19.5944 19.9385 20.0532 20.1077 20.2323 20.4919V20.4919C20.4115 20.8761 20.2424 21.3292 19.8803 21.5495C19.038 22.0619 18.3114 22.7489 17.7515 23.5674C17.0466 24.5977 16.6316 25.7986 16.5499 27.0443C16.4683 28.29 16.7229 29.5348 17.2872 30.6484C17.8515 31.7619 18.7048 32.7034 19.7576 33.3741C20.8105 34.0449 22.0243 34.4204 23.272 34.4612C24.5198 34.5021 25.7555 34.2069 26.85 33.6064C27.9445 33.006 28.8575 32.1224 29.4935 31.0481C29.9987 30.1947 30.3143 29.2459 30.4227 28.266C30.4694 27.8447 30.8086 27.5 31.2325 27.5V27.5Z"/>
</mask>
<path d="M31.2325 27.5C31.6564 27.5 32.0036 27.8443 31.9654 28.2665C31.8517 29.5219 31.4598 30.7398 30.8144 31.8301C30.0383 33.1411 28.9241 34.2194 27.5883 34.9522C26.2526 35.685 24.7445 36.0453 23.2218 35.9954C21.6991 35.9456 20.2178 35.4874 18.9328 34.6688C17.6479 33.8501 16.6066 32.7012 15.918 31.3422C15.2293 29.9833 14.9185 28.4641 15.0182 26.9439C15.1179 25.4236 15.6243 23.9581 16.4846 22.7007C17.1999 21.655 18.1381 20.7851 19.2279 20.1516C19.5944 19.9385 20.0532 20.1077 20.2323 20.4919V20.4919C20.4115 20.8761 20.2424 21.3292 19.8803 21.5495C19.038 22.0619 18.3114 22.7489 17.7515 23.5674C17.0466 24.5977 16.6316 25.7986 16.5499 27.0443C16.4683 28.29 16.7229 29.5348 17.2872 30.6484C17.8515 31.7619 18.7048 32.7034 19.7576 33.3741C20.8105 34.0449 22.0243 34.4204 23.272 34.4612C24.5198 34.5021 25.7555 34.2069 26.85 33.6064C27.9445 33.006 28.8575 32.1224 29.4935 31.0481C29.9987 30.1947 30.3143 29.2459 30.4227 28.266C30.4694 27.8447 30.8086 27.5 31.2325 27.5V27.5Z" stroke="white" stroke-width="3" mask="url(#path-7-inside-3_262_1333)"/>
<path fill-rule="evenodd" clip-rule="evenodd" d="M37.7775 19.4383C38.3909 20.5989 38.8707 21.8411 39.1964 23.1443H39.6907C40.6814 23.1443 41.4845 23.9474 41.4845 24.9381V28.5257C41.4845 29.5164 40.6814 30.3195 39.6907 30.3195H39.3942C38.9934 32.4128 38.1992 34.3663 37.0916 36.1003L37.2363 36.245C37.9368 36.9455 37.9368 38.0813 37.2363 38.7818L34.6995 41.3187C33.9989 42.0192 32.8632 42.0192 32.1626 41.3187L32.018 41.174C30.284 42.2816 28.3304 43.0757 26.2372 43.4765V43.7731C26.2372 44.7638 25.434 45.5669 24.4433 45.5669H20.8557C19.865 45.5669 19.0619 44.7638 19.0619 43.7731V43.2788C17.0914 42.7863 15.2604 41.9416 13.6398 40.8153L13.1364 41.3187C12.4359 42.0192 11.3001 42.0192 10.5996 41.3187L8.06277 38.7818C7.36224 38.0813 7.36224 36.9455 8.06277 36.245L8.76404 35.5437C7.83342 33.9522 7.16029 32.1917 6.80179 30.3195H5.60835C4.61766 30.3195 3.81454 29.5164 3.81454 28.5257V24.9381C3.81454 23.9474 4.61766 23.1443 5.60835 23.1443H6.99956C7.43826 21.3889 8.15654 19.7442 9.10436 18.2604L8.06278 17.2188C7.36225 16.5183 7.36225 15.3825 8.06278 14.682L10.5996 12.1451C11.3001 11.4446 12.4359 11.4446 13.1364 12.1451L14.178 13.1867C15.6619 12.2389 17.3065 11.5206 19.0619 11.0819V9.69072C19.0619 8.70003 19.865 7.89691 20.8557 7.89691H22.1563C21.7208 8.30804 21.3228 8.75837 20.9678 9.24227H20.8557C20.6081 9.24227 20.4073 9.44305 20.4073 9.69072V10.0953C19.9925 10.8039 19.6636 11.5688 19.4348 12.3759C17.4398 12.8679 15.5993 13.7526 14.0002 14.9434L13.0396 13.9828L13.0577 13.969L12.1851 13.0964C12.01 12.9213 11.726 12.9213 11.5509 13.0964L9.01409 15.6333C8.83896 15.8084 8.83896 16.0923 9.01409 16.2675L9.88663 17.14L9.90041 17.1219L10.8611 18.0826C9.47911 19.9384 8.50933 22.1192 8.08728 24.4896L6.72231 24.4896H5.60835C5.36068 24.4896 5.1599 24.6904 5.1599 24.9381L5.1599 28.5257C5.1599 28.7734 5.36068 28.9742 5.60835 28.9742H6.60109L7.95502 28.9742C8.24727 31.4679 9.14127 33.7776 10.4879 35.7544L9.52097 36.7213L9.50782 36.7026L9.01408 37.1963C8.83895 37.3714 8.83895 37.6554 9.01408 37.8305L11.5509 40.3673C11.726 40.5425 12.01 40.5425 12.1851 40.3673L12.5571 39.9954L12.5428 39.9835L13.5136 39.0394C15.4701 40.6226 17.8263 41.7315 20.4073 42.1911V43.556V43.7731C20.4073 44.0208 20.6081 44.2215 20.8557 44.2215H24.4433C24.691 44.2215 24.8918 44.0208 24.8918 43.7731V43.6772V42.3233C27.6092 42.0049 30.1081 40.9719 32.1957 39.4173L32.9639 40.1855C33.0283 40.2498 33.0949 40.3125 33.1633 40.3726L33.1394 40.3909C33.3156 40.5421 33.5813 40.5342 33.7482 40.3674L36.285 37.8305C36.4519 37.6636 36.4597 37.3979 36.3085 37.2217L36.2903 37.2457C36.2301 37.1773 36.1674 37.1106 36.1031 37.0463L35.3349 36.2781C36.8895 34.1905 37.9225 31.6915 38.241 28.9742H39.5949H39.6907C39.9384 28.9742 40.1392 28.7734 40.1392 28.5257V24.9381C40.1392 24.6904 39.9384 24.4896 39.6907 24.4896H39.4737H38.1087C37.879 23.1996 37.4871 21.9657 36.9548 20.8098C37.2644 20.3773 37.54 19.9189 37.7775 19.4383Z" fill="white"/>
</svg>
