<svg width="50" height="50" viewBox="0 0 50 50" fill="none" xmlns="http://www.w3.org/2000/svg">
<circle cx="25.5" cy="28.5" r="12.5" stroke="url(#paint0_linear_42_805)" stroke-width="2"/>
<mask id="path-2-inside-1_42_805" fill="white">
<path fill-rule="evenodd" clip-rule="evenodd" d="M25 19C24.4477 19 24 19.4477 24 20V26.2676C24.2942 26.1341 24.6357 26.0577 25 26.0577C25.3643 26.0577 25.7058 26.1341 26 26.2676V20C26 19.4477 25.5523 19 25 19Z"/>
</mask>
<path d="M24 26.2676H22V29.371L24.8262 28.0889L24 26.2676ZM26 26.2676L25.1738 28.0889L28 29.371V26.2676H26ZM26 20C26 20.5523 25.5523 21 25 21V17C23.3431 17 22 18.3431 22 20H26ZM26 26.2676V20H22V26.2676H26ZM24.8262 28.0889C24.8541 28.0763 24.9132 28.0577 25 28.0577V24.0577C24.3583 24.0577 23.7343 24.1919 23.1738 24.4462L24.8262 28.0889ZM25 28.0577C25.0868 28.0577 25.1459 28.0763 25.1738 28.0889L26.8262 24.4462C26.2657 24.1919 25.6417 24.0577 25 24.0577V28.0577ZM24 20V26.2676H28V20H24ZM25 21C24.4477 21 24 20.5523 24 20H28C28 18.3431 26.6569 17 25 17V21Z" fill="url(#paint1_linear_42_805)" mask="url(#path-2-inside-1_42_805)"/>
<mask id="path-4-inside-2_42_805" fill="white">
<path fill-rule="evenodd" clip-rule="evenodd" d="M29.1761 32.6591C29.5966 32.3011 29.6473 31.67 29.2893 31.2494L26.5328 28.0116C26.5295 28.0078 26.5261 28.0039 26.5228 28.0001C26.3615 28.2644 26.1373 28.5279 25.86 28.764C25.5827 29.0001 25.2868 29.1794 25.0001 29.2964C25.0033 29.3003 25.0066 29.3042 25.0099 29.3081L27.7664 32.5459C28.1244 32.9665 28.7556 33.0171 29.1761 32.6591Z"/>
</mask>
<path d="M26.5228 28.0001L28.0261 26.6809L26.2322 24.6367L24.8155 26.9583L26.5228 28.0001ZM25.0001 29.2964L24.244 27.4448L21.7262 28.473L23.458 30.57L25.0001 29.2964ZM27.7664 32.5459C27.4084 32.1254 27.4591 31.4943 27.8796 31.1363L30.4726 34.182C31.7342 33.1079 31.8862 31.2145 30.8121 29.9529L27.7664 32.5459ZM25.0099 29.3081L27.7664 32.5459L30.8121 29.9529L28.0556 26.7151L25.0099 29.3081ZM25.0195 29.3192C25.0163 29.3155 25.0131 29.3118 25.0099 29.3081L28.0556 26.7151C28.0459 26.7037 28.036 26.6923 28.0261 26.6809L25.0195 29.3192ZM24.8155 26.9583C24.7723 27.0292 24.6906 27.133 24.5635 27.2412L27.1565 30.2869C27.5841 29.9229 27.9507 29.4996 28.23 29.0419L24.8155 26.9583ZM24.5635 27.2412C24.4364 27.3494 24.3209 27.4134 24.244 27.4448L25.7562 31.148C26.2526 30.9453 26.7289 30.6509 27.1565 30.2869L24.5635 27.2412ZM26.5328 28.0116C26.5359 28.0154 26.5391 28.0191 26.5422 28.0229L23.458 30.57C23.4676 30.5816 23.4773 30.5931 23.487 30.6046L26.5328 28.0116ZM29.2893 31.2494L26.5328 28.0116L23.487 30.6046L26.2436 33.8424L29.2893 31.2494ZM27.8796 31.1363C28.3001 30.7782 28.9313 30.8289 29.2893 31.2494L26.2436 33.8424C27.3176 35.104 29.211 35.256 30.4726 34.182L27.8796 31.1363Z" fill="url(#paint2_linear_42_805)" mask="url(#path-4-inside-2_42_805)"/>
<circle cx="25" cy="28" r="1" fill="url(#paint3_linear_42_805)" stroke="url(#paint4_linear_42_805)" stroke-width="2"/>
<path fill-rule="evenodd" clip-rule="evenodd" d="M25.3535 5.64645C25.1583 5.45118 24.8417 5.45118 24.6464 5.64645L21.4644 8.82843C21.2692 9.02369 21.2692 9.34027 21.4644 9.53553C21.6597 9.7308 21.9763 9.7308 22.1715 9.53553L24.5 7.20711V12.0616C24.8309 12.0343 25.1643 12.016 25.5 12.0068V7.20711L27.8284 9.53553C28.0237 9.7308 28.3402 9.7308 28.5355 9.53553C28.7308 9.34027 28.7308 9.02369 28.5355 8.82843L25.3535 5.64645ZM30.2117 12.4954C29.9218 12.4259 29.6292 12.3635 29.3341 12.3082C29.291 12.1422 29.3344 11.9584 29.4644 11.8284L32.6464 8.64645C32.8417 8.45118 33.1583 8.45118 33.3535 8.64645L36.5355 11.8284C36.7308 12.0237 36.7308 12.3403 36.5355 12.5355C36.3402 12.7308 36.0237 12.7308 35.8284 12.5355L33.5 10.2071V13.6321C33.1718 13.4815 32.8384 13.3405 32.5 13.2094V10.2071L30.2117 12.4954ZM38.5806 17.1265C38.3421 16.8933 38.097 16.6667 37.8459 16.447L39.6464 14.6464C39.8417 14.4512 40.1583 14.4512 40.3535 14.6464L43.5355 17.8284C43.7308 18.0237 43.7308 18.3403 43.5355 18.5355C43.3402 18.7308 43.0237 18.7308 42.8284 18.5355L40.5 16.2071V19.3326C40.1847 18.9048 39.851 18.4915 39.5 18.0938V16.2071L38.5806 17.1265ZM10.5 20.8429C10.1287 21.4701 9.79432 22.1217 9.49997 22.7949V16.2071L7.17155 18.5355C6.97628 18.7308 6.6597 18.7308 6.46444 18.5355C6.26918 18.3403 6.26918 18.0237 6.46444 17.8284L9.64642 14.6464C9.84168 14.4512 10.1583 14.4512 10.3535 14.6464L13.1264 17.4194C12.8933 17.6579 12.6667 17.9029 12.447 18.1541L10.5 16.2071V20.8429ZM17.5 14.1294C17.16 14.3119 16.8265 14.505 16.5 14.7082V11.2071L14.1715 13.5355C13.9763 13.7308 13.6597 13.7308 13.4644 13.5355C13.2692 13.3403 13.2692 13.0237 13.4644 12.8284L16.6464 9.64645C16.8417 9.45118 17.1583 9.45118 17.3535 9.64645L20.5355 12.8284C20.5395 12.8325 20.5435 12.8365 20.5473 12.8407C20.1939 12.9529 19.8452 13.0757 19.5016 13.2088L17.5 11.2071V14.1294Z" fill="url(#paint5_linear_42_805)"/>
<defs>
<linearGradient id="paint0_linear_42_805" x1="25.5" y1="15" x2="25.5" y2="42" gradientUnits="userSpaceOnUse">
<stop stop-color="#1A00FF"/>
<stop offset="1" stop-color="#0B006B"/>
</linearGradient>
<linearGradient id="paint1_linear_42_805" x1="25" y1="19" x2="25" y2="26.2676" gradientUnits="userSpaceOnUse">
<stop stop-color="#1A00FF"/>
<stop offset="1" stop-color="#0B006B"/>
</linearGradient>
<linearGradient id="paint2_linear_42_805" x1="29.1761" y1="32.6591" x2="25.7614" y2="28.6483" gradientUnits="userSpaceOnUse">
<stop stop-color="#1A00FF"/>
<stop offset="1" stop-color="#0B006B"/>
</linearGradient>
<linearGradient id="paint3_linear_42_805" x1="25" y1="26" x2="25" y2="30" gradientUnits="userSpaceOnUse">
<stop stop-color="#1A00FF"/>
<stop offset="1" stop-color="#0B006B"/>
</linearGradient>
<linearGradient id="paint4_linear_42_805" x1="25" y1="26" x2="25" y2="30" gradientUnits="userSpaceOnUse">
<stop stop-color="#1A00FF"/>
<stop offset="1" stop-color="#0B006B"/>
</linearGradient>
<linearGradient id="paint5_linear_42_805" x1="25" y1="5.5" x2="25" y2="22.7949" gradientUnits="userSpaceOnUse">
<stop stop-color="#1A00FF"/>
<stop offset="1" stop-color="#0B006B"/>
</linearGradient>
</defs>
</svg>
