<svg width="24" height="24" viewBox="0 0 24 24" fill="none" xmlns="http://www.w3.org/2000/svg">
    <path fill-rule="evenodd" clip-rule="evenodd"
        d="M20.5 12C20.5 16.6944 16.6944 20.5 12 20.5C10.4381 20.5 8.97466 20.0787 7.717 19.3437L6.62594 20.4347C8.17806 21.4257 10.022 22 12 22C17.5228 22 22 17.5228 22 12C22 10.022 21.4257 8.17806 20.4347 6.62594L19.3437 7.717C20.0787 8.97466 20.5 10.4381 20.5 12ZM6.47753 18.4618C4.65509 16.9028 3.5 14.5863 3.5 12C3.5 7.30558 7.30558 3.5 12 3.5C14.5863 3.5 16.9028 4.65509 18.4618 6.47753L19.5252 5.41412C17.6923 3.32145 15.0005 2 12 2C6.47715 2 2 6.47715 2 12C2 15.0005 3.32145 17.6923 5.41412 19.5252L6.47753 18.4618Z"
        fill="#474747" />
    <path d="M2.64645 21.6465L21.6465 2.64645" stroke="#474747" stroke-width="1.5" stroke-linecap="round" />
</svg>