<svg width="53" height="53" viewBox="0 0 53 53" fill="none" xmlns="http://www.w3.org/2000/svg">
    <path
        d="M26.4999 16.3438C25.5247 16.359 24.5567 16.5135 23.6254 16.8027C24.0562 17.5585 24.2855 18.4119 24.2916 19.2812C24.2916 19.9563 24.1583 20.6248 23.8994 21.2485C23.6404 21.8722 23.2609 22.4389 22.7824 22.9162C22.3039 23.3936 21.7359 23.7722 21.1107 24.0306C20.4855 24.2889 19.8155 24.4219 19.1388 24.4219C18.2674 24.4158 17.412 24.187 16.6544 23.7573C16.0567 25.8253 16.1264 28.0284 16.8536 30.0548C17.5807 32.0811 18.9285 33.8277 20.706 35.0474C22.4835 36.2671 24.6005 36.8979 26.7574 36.8505C28.9142 36.8031 31.0013 36.0799 32.7233 34.7833C34.4452 33.4867 35.7145 31.6825 36.3515 29.6262C36.9885 27.5699 36.9609 25.3658 36.2724 23.3261C35.584 21.2863 34.2698 19.5144 32.5159 18.2613C30.7619 17.0081 28.6573 16.3373 26.4999 16.3438ZM52.6797 25.2848C47.6898 15.5717 37.8112 9 26.4999 9C15.1887 9 5.30729 15.5763 0.320135 25.2857C0.109646 25.7011 -2.28882e-05 26.16 -2.28882e-05 26.6255C-2.28882e-05 27.0909 0.109646 27.5498 0.320135 27.9652C5.31005 37.6783 15.1887 44.25 26.4999 44.25C37.8112 44.25 47.6926 37.6737 52.6797 27.9643C52.8902 27.5489 52.9999 27.09 52.9999 26.6245C52.9999 26.1591 52.8902 25.7002 52.6797 25.2848ZM26.4999 39.8438C17.4228 39.8438 9.10102 34.7949 4.60706 26.625C9.10102 18.4551 17.4218 13.4062 26.4999 13.4062C35.578 13.4062 43.8988 18.4551 48.3928 26.625C43.8998 34.7949 35.578 39.8438 26.4999 39.8438Z"
        fill="white" />
</svg>