<svg width="50" height="50" viewBox="0 0 50 50" fill="none" xmlns="http://www.w3.org/2000/svg">
<g clip-path="url(#clip0_45_4)">
<path d="M49.532 41.7969L26.1726 23.5355L2.81326 5.27422C2.68512 5.17162 2.53803 5.09527 2.38038 5.04952C2.22273 5.00378 2.05761 4.98953 1.89446 5.00759C1.7313 5.02566 1.5733 5.07568 1.42948 5.1548C1.28566 5.23393 1.15883 5.34061 1.05623 5.46875L0.274982 6.44453C0.172146 6.57272 0.0955959 6.71992 0.0497117 6.87772C0.00382745 7.03553 -0.0104901 7.20083 0.00757824 7.36417C0.0256466 7.52751 0.0757463 7.68568 0.15501 7.82964C0.234275 7.9736 0.341147 8.10051 0.469513 8.20313L47.1883 44.7258C47.3164 44.8284 47.4635 44.9047 47.6211 44.9505C47.7788 44.9962 47.9439 45.0105 48.1071 44.9924C48.2702 44.9743 48.4282 44.9243 48.572 44.8452C48.7159 44.7661 48.8427 44.6594 48.9453 44.5312L49.7265 43.5555C49.8294 43.4273 49.9059 43.2801 49.9518 43.1223C49.9977 42.9645 50.012 42.7992 49.9939 42.6358C49.9759 42.4725 49.9258 42.3143 49.8465 42.1704C49.7673 42.0264 49.6604 41.8995 49.532 41.7969ZM23.1875 16.443L33.7179 24.6758C33.5445 19.993 29.7258 16.25 25.0008 16.25C24.3913 16.2511 23.7836 16.3158 23.1875 16.443ZM26.814 33.5578L16.2836 25.325C16.4578 30.007 20.2765 33.75 25.0008 33.75C25.6102 33.7487 26.2179 33.6843 26.814 33.5578ZM25.0008 13.75C32.7078 13.75 39.7734 18.0469 43.589 25C42.6537 26.7112 41.498 28.2924 40.1515 29.7031L43.1 32.0078C44.7415 30.2517 46.1323 28.277 47.2328 26.1398C47.4115 25.7863 47.5046 25.3957 47.5046 24.9996C47.5046 24.6035 47.4115 24.2129 47.2328 23.8594C42.9922 15.593 34.6047 10 25.0008 10C22.1336 10 19.3984 10.5469 16.8265 11.4695L20.4523 14.3047C21.932 13.9688 23.4476 13.75 25.0008 13.75ZM25.0008 36.25C17.2937 36.25 10.2289 31.9531 6.41248 25C7.34903 23.2888 8.50604 21.7079 9.85389 20.2977L6.90545 17.993C5.26416 19.7488 3.87364 21.7233 2.77342 23.8602C2.5947 24.2137 2.50159 24.6043 2.50159 25.0004C2.50159 25.3965 2.5947 25.7871 2.77342 26.1406C7.01014 34.407 15.3976 40 25.0008 40C27.868 40 30.6031 39.4492 33.175 38.5305L29.5492 35.6961C28.0695 36.0313 26.5547 36.25 25.0008 36.25Z" fill="black"/>
</g>
<defs>
<clipPath id="clip0_45_4">
<rect width="50" height="50" fill="white"/>
</clipPath>
</defs>
</svg>
