<svg width="40" height="40" viewBox="0 0 40 40" fill="none" xmlns="http://www.w3.org/2000/svg">
<path fill-rule="evenodd" clip-rule="evenodd" d="M5.5 3C4.67157 3 4 3.67157 4 4.5V19.2561C4.46917 19.0902 4.97405 19 5.5 19C6.02595 19 6.53083 19.0902 7 19.2561V4.5C7 3.67157 6.32843 3 5.5 3ZM7 27.7439C6.53083 27.9098 6.02595 28 5.5 28C4.97405 28 4.46917 27.9098 4 27.7439V34.5C4 35.3284 4.67157 36 5.5 36C6.32843 36 7 35.3284 7 34.5V27.7439Z" fill="black"/>
<circle cx="5.5" cy="23.5" r="3.75" stroke="black" stroke-width="1.5"/>
<path fill-rule="evenodd" clip-rule="evenodd" d="M19.5 3C18.6716 3 18 3.67157 18 4.5V25.2561C18.4692 25.0902 18.974 25 19.5 25C20.026 25 20.5308 25.0902 21 25.2561V4.5C21 3.67157 20.3284 3 19.5 3ZM21 33.7439C20.5308 33.9098 20.026 34 19.5 34C18.974 34 18.4692 33.9098 18 33.7439V34.5C18 35.3284 18.6716 36 19.5 36C20.3284 36 21 35.3284 21 34.5V33.7439Z" fill="black"/>
<circle cx="19.5" cy="29.5" r="3.75" stroke="black" stroke-width="1.5"/>
<path fill-rule="evenodd" clip-rule="evenodd" d="M33.5 3C32.6716 3 32 3.67157 32 4.5V8.25606C32.4692 8.09023 32.974 8 33.5 8C34.026 8 34.5308 8.09023 35 8.25606V4.5C35 3.67157 34.3284 3 33.5 3ZM35 16.7439C34.5308 16.9098 34.026 17 33.5 17C32.974 17 32.4692 16.9098 32 16.7439V34.5C32 35.3284 32.6716 36 33.5 36C34.3284 36 35 35.3284 35 34.5V16.7439Z" fill="black"/>
<circle cx="33.5" cy="12.5" r="3.75" stroke="black" stroke-width="1.5"/>
</svg>
