<svg width="307" height="80" viewBox="0 0 307 80" fill="none" xmlns="http://www.w3.org/2000/svg">
<path d="M10 19.4947V64.928C16.3333 63.4919 31.2 61.4814 40 64.928V17.928" stroke="url(#paint0_linear_75_285)" stroke-width="4"/>
<path d="M70 19.4947V64.928C63.6667 63.4919 48.8 61.4814 40 64.928V17.928" stroke="url(#paint1_linear_75_285)" stroke-width="4"/>
<path d="M40 64.9281C35.5 62.4258 27.154 54.8995 17.154 57.4281L17.154 15.4281C22.8207 14.5062 32.8 14.8191 40 18.928" stroke="url(#paint2_linear_75_285)" stroke-width="4"/>
<path d="M40 64.9281C44.5 62.4258 52.846 54.8995 62.846 57.4281L62.846 15.4281C57.1793 14.5062 47.2 14.8191 40 18.928" stroke="url(#paint3_linear_75_285)" stroke-width="4"/>
<path d="M93.0395 61L101.139 19H101.919L114.819 52.96L127.659 19H128.439L136.599 61H134.739L127.599 24.16L115.239 56.86H114.339L101.979 24.16L94.8395 61H93.0395ZM156.065 19H158.825L174.125 61H172.205L168.485 50.8H146.405L142.685 61H140.765L156.065 19ZM147.065 49H167.825L157.445 20.5L147.065 49ZM191.461 61.78C189.281 61.78 187.161 61.45 185.101 60.79C183.041 60.11 181.241 59.15 179.701 57.91C178.181 56.67 177.121 55.18 176.521 53.44L178.201 52.78C178.761 54.36 179.741 55.69 181.141 56.77C182.561 57.83 184.181 58.63 186.001 59.17C187.821 59.71 189.641 59.98 191.461 59.98C193.721 59.98 195.831 59.59 197.791 58.81C199.751 58.03 201.331 56.93 202.531 55.51C203.751 54.09 204.361 52.42 204.361 50.5C204.361 48.54 203.731 46.94 202.471 45.7C201.231 44.44 199.621 43.45 197.641 42.73C195.681 41.99 193.621 41.42 191.461 41.02C188.681 40.5 186.181 39.85 183.961 39.07C181.761 38.27 180.021 37.15 178.741 35.71C177.461 34.25 176.821 32.26 176.821 29.74C176.821 27.44 177.501 25.45 178.861 23.77C180.221 22.07 182.011 20.76 184.231 19.84C186.471 18.92 188.881 18.46 191.461 18.46C193.541 18.46 195.601 18.78 197.641 19.42C199.681 20.06 201.481 21.01 203.041 22.27C204.621 23.51 205.761 25.04 206.461 26.86L204.721 27.46C204.161 25.88 203.181 24.56 201.781 23.5C200.381 22.42 198.761 21.61 196.921 21.07C195.101 20.53 193.281 20.26 191.461 20.26C189.181 20.26 187.061 20.66 185.101 21.46C183.161 22.24 181.591 23.34 180.391 24.76C179.211 26.18 178.621 27.84 178.621 29.74C178.621 31.9 179.181 33.58 180.301 34.78C181.421 35.96 182.941 36.86 184.861 37.48C186.801 38.1 189.001 38.64 191.461 39.1C194.041 39.58 196.441 40.28 198.661 41.2C200.901 42.12 202.711 43.34 204.091 44.86C205.471 46.36 206.161 48.24 206.161 50.5C206.161 52.8 205.471 54.8 204.091 56.5C202.731 58.18 200.931 59.48 198.691 60.4C196.471 61.32 194.061 61.78 191.461 61.78ZM213.684 61V19H238.044V20.8H215.484V37.6H235.164V39.4H215.484V61H213.684ZM251.845 61.78C249.085 61.78 246.565 61.07 244.285 59.65C242.025 58.23 240.215 56.33 238.855 53.95C237.515 51.55 236.845 48.9 236.845 46C236.845 43.8 237.235 41.75 238.015 39.85C238.795 37.93 239.865 36.25 241.225 34.81C242.605 33.35 244.205 32.21 246.025 31.39C247.845 30.57 249.785 30.16 251.845 30.16C253.985 30.16 255.955 30.56 257.755 31.36C259.555 32.16 261.125 33.3 262.465 34.78C263.805 36.26 264.845 38.03 265.585 40.09C266.345 42.13 266.745 44.4 266.785 46.9H238.645C238.845 49.4 239.555 51.64 240.775 53.62C242.015 55.58 243.595 57.13 245.515 58.27C247.435 59.41 249.545 59.98 251.845 59.98C254.405 59.98 256.705 59.3 258.745 57.94C260.785 56.58 262.405 54.7 263.605 52.3L265.405 52.72C264.205 55.38 262.395 57.56 259.975 59.26C257.555 60.94 254.845 61.78 251.845 61.78ZM238.645 45.1H264.985C264.905 42.76 264.265 40.59 263.065 38.59C261.865 36.59 260.285 34.99 258.325 33.79C256.365 32.57 254.205 31.96 251.845 31.96C249.465 31.96 247.305 32.55 245.365 33.73C243.445 34.91 241.885 36.5 240.685 38.5C239.485 40.48 238.805 42.68 238.645 45.1Z" fill="#474747"/>
<defs>
<linearGradient id="paint0_linear_75_285" x1="25" y1="17.928" x2="25" y2="64.928" gradientUnits="userSpaceOnUse">
<stop stop-color="#1A00FF"/>
<stop offset="1" stop-color="#035099"/>
</linearGradient>
<linearGradient id="paint1_linear_75_285" x1="55" y1="17.928" x2="55" y2="64.928" gradientUnits="userSpaceOnUse">
<stop stop-color="#1A00FF"/>
<stop offset="1" stop-color="#035099"/>
</linearGradient>
<linearGradient id="paint2_linear_75_285" x1="28.577" y1="15" x2="28.577" y2="64.9281" gradientUnits="userSpaceOnUse">
<stop stop-color="#1A00FF"/>
<stop offset="1" stop-color="#035099"/>
</linearGradient>
<linearGradient id="paint3_linear_75_285" x1="51.423" y1="15" x2="51.423" y2="64.9281" gradientUnits="userSpaceOnUse">
<stop stop-color="#1A00FF"/>
<stop offset="1" stop-color="#035099"/>
</linearGradient>
</defs>
</svg>
