<svg width="223" height="297" viewBox="0 0 223 297" fill="none" xmlns="http://www.w3.org/2000/svg">
<g clip-path="url(#clip0_214_1334)">
<path d="M129.793 18.5625C58.0729 18.5625 0 76.7443 0 148.5C0 220.256 58.0729 278.438 129.793 278.438C164.985 278.438 196.867 264.4 220.271 241.661C223.174 238.818 223.929 234.41 222.071 230.813C220.213 227.217 216.205 225.186 212.198 225.882C206.507 226.869 200.7 227.391 194.718 227.391C138.446 227.391 92.8005 181.68 92.8005 125.297C92.8005 87.1277 113.707 53.8893 144.66 36.3709C148.202 34.3406 150.002 30.2801 149.131 26.3355C148.26 22.391 144.892 19.4326 140.827 19.0846C137.168 18.7945 133.51 18.6205 129.793 18.6205V18.5625Z" fill="#FFEA00"/>
</g>
<defs>
<clipPath id="clip0_214_1334">
<rect width="223" height="297" fill="white"/>
</clipPath>
</defs>
</svg>
