<svg width="40" height="38" viewBox="0 0 40 38" fill="none" xmlns="http://www.w3.org/2000/svg">
<path d="M7.5 4H20H21.5H7.5ZM7.5 4C4.93941 4 3 5.07577 3 7.63636M7.5 4C5.96364 4 3 6.10001 3 7.63636M3 7.63636V32.3636M3 32.3636C3 34.9242 5.07577 37 7.63636 37M3 32.3636C3 33.9 6.10001 37 7.63636 37M7.63636 37H32.3636M32.3636 37C34.9242 37 36 34.9242 36 32.3636M32.3636 37C33.9 37 36 33.9 36 32.3636M36 32.3636V21M36 32.3636V19V21M36 21V12.1954C36 11.6175 35.7499 11.0677 35.3143 10.6879L28.2077 4.49245C27.8435 4.17493 27.3767 4 26.8935 4H18" stroke="white" stroke-width="2"/>
<path d="M14 36C14 34.6892 14 28.6387 14 24.999C14 24.4467 14.4477 24 15 24H25C25.5523 24 26 24.4477 26 25V36" stroke="white" stroke-width="2"/>
<path d="M7 4V8V11C7 11.5523 7.44772 12 8 12H17C17.5523 12 18 11.5523 18 11V4" stroke="white" stroke-width="2"/>
</svg>
