<svg width="40" height="40" viewBox="0 0 40 40" fill="none" xmlns="http://www.w3.org/2000/svg">
<path d="M24 28C22 26 22.5 24.5 23 24C24.6 22.4 26.3333 23.3333 27 24L36 33C37.2 34.6 35.8333 36 35 36.5C33.8 37.3 32.5 36.5 32 36L24 28Z" fill="black"/>
<path d="M10.5 7C13.5 4.5 18.4 6.2 20 11M21 21.5L32.5 33M24 13.5C24 19.299 19.299 24 13.5 24C7.70101 24 3 19.299 3 13.5C3 7.70101 7.70101 3 13.5 3C19.299 3 24 7.70101 24 13.5ZM23 24C22.5 24.5 22 26 24 28L32 36C32.5 36.5 33.8 37.3 35 36.5C35.8333 36 37.2 34.6 36 33L27 24C26.3333 23.3333 24.6 22.4 23 24Z" stroke="black" stroke-linecap="round"/>
</svg>
