<svg width="265" height="265" viewBox="0 0 265 265" fill="none" xmlns="http://www.w3.org/2000/svg">
    <g clip-path="url(#clip0_214_1332)">
        <path
            d="M187.104 0.621092C189.692 1.70801 191.556 4.03711 192.073 6.78027L202.373 62.627L258.22 72.875C260.963 73.3926 263.292 75.2559 264.379 77.8437C265.466 80.4316 265.155 83.3818 263.551 85.7109L231.306 132.5L263.551 179.237C265.155 181.566 265.466 184.517 264.379 187.104C263.292 189.692 260.963 191.556 258.22 192.073L202.373 202.373L192.073 258.22C191.556 260.963 189.692 263.292 187.104 264.379C184.517 265.466 181.566 265.155 179.237 263.551L132.5 231.306L85.7627 263.551C83.4336 265.155 80.4834 265.466 77.8955 264.379C75.3076 263.292 73.4443 260.963 72.9268 258.22L62.627 202.373L6.78027 192.073C4.03711 191.556 1.70801 189.692 0.621092 187.104C-0.465822 184.517 -0.155276 181.566 1.44922 179.237L33.6943 132.5L1.44922 85.7627C-0.155276 83.4336 -0.465822 80.4834 0.621092 77.8955C1.70801 75.3076 4.03711 73.4443 6.78027 72.9268L62.627 62.627L72.9268 6.78027C73.4443 4.03711 75.3076 1.70801 77.8955 0.621092C80.4834 -0.465822 83.4336 -0.155276 85.7627 1.44922L132.5 33.6943L179.237 1.44922C181.566 -0.155276 184.517 -0.465822 187.104 0.621092ZM82.8125 132.5C82.8125 119.322 88.0474 106.684 97.3656 97.3656C106.684 88.0474 119.322 82.8125 132.5 82.8125C145.678 82.8125 158.316 88.0474 167.634 97.3656C176.953 106.684 182.187 119.322 182.188 132.5C182.188 145.678 176.953 158.316 167.634 167.634C158.316 176.953 145.678 182.188 132.5 182.188C119.322 182.188 106.684 176.953 97.3656 167.634C88.0474 158.316 82.8125 145.678 82.8125 132.5ZM198.75 132.5C198.75 114.929 191.77 98.0785 179.346 85.6542C166.922 73.2299 150.071 66.25 132.5 66.25C114.929 66.25 98.0785 73.2299 85.6542 85.6542C73.2299 98.0785 66.25 114.929 66.25 132.5C66.25 150.071 73.2299 166.922 85.6542 179.346C98.0785 191.77 114.929 198.75 132.5 198.75C150.071 198.75 166.922 191.77 179.346 179.346C191.77 166.922 198.75 150.071 198.75 132.5Z"
            fill="#FFAE00" />
    </g>
    <defs>
        <clipPath id="clip0_214_1332">
            <rect width="265" height="265" fill="white" />
        </clipPath>
    </defs>
</svg>