<svg width="40" height="40" viewBox="0 0 40 40" fill="none" xmlns="http://www.w3.org/2000/svg">
<path d="M12.3097 33.7116L10.2353 14.2116C10.1096 13.03 11.0358 12 12.2241 12H28.1801C29.402 12 30.3382 13.0861 30.1582 14.2946L27.254 33.7946C27.108 34.7746 26.2666 35.5 25.2758 35.5H14.2985C13.2758 35.5 12.4179 34.7285 12.3097 33.7116Z" stroke="white" stroke-width="1.5" stroke-linecap="round"/>
<path d="M10.5 10H19.5926H29.5C30.3284 10 31 9.32843 31 8.5C31 7.67157 30.3284 7 29.5 7H10.5C9.67157 7 9 7.67157 9 8.5C9 9.32843 9.67157 10 10.5 10Z" stroke="white" stroke-width="1.5" stroke-linecap="round"/>
<path d="M18 7V6C18 4.89543 18.8954 4 20 4V4C21.1046 4 22 4.89543 22 6V7" stroke="white" stroke-width="1.5" stroke-linecap="round"/>
<path d="M20 16V33" stroke="white" stroke-width="1.5" stroke-linecap="round"/>
<path d="M23.5 33L25 16" stroke="white" stroke-width="1.5" stroke-linecap="round"/>
<path d="M16.5 33L15 16" stroke="white" stroke-width="1.5" stroke-linecap="round"/>
</svg>
