<svg width="80" height="80" viewBox="0 0 80 80" fill="none" xmlns="http://www.w3.org/2000/svg">
<path d="M10 19.4947V64.928C16.3333 63.4919 31.2 61.4814 40 64.928V17.928" stroke="url(#paint0_linear_75_256)" stroke-width="4"/>
<path d="M70 19.4947V64.928C63.6667 63.4919 48.8 61.4814 40 64.928V17.928" stroke="url(#paint1_linear_75_256)" stroke-width="4"/>
<path d="M40 64.9281C35.5 62.4258 27.154 54.8995 17.154 57.4281L17.154 15.4281C22.8207 14.5062 32.8 14.8191 40 18.928" stroke="url(#paint2_linear_75_256)" stroke-width="4"/>
<path d="M40 64.9281C44.5 62.4258 52.846 54.8995 62.846 57.4281L62.846 15.4281C57.1793 14.5062 47.2 14.8191 40 18.928" stroke="url(#paint3_linear_75_256)" stroke-width="4"/>
<defs>
<linearGradient id="paint0_linear_75_256" x1="25" y1="17.928" x2="25" y2="64.928" gradientUnits="userSpaceOnUse">
<stop stop-color="#1A00FF"/>
<stop offset="1" stop-color="#035099"/>
</linearGradient>
<linearGradient id="paint1_linear_75_256" x1="55" y1="17.928" x2="55" y2="64.928" gradientUnits="userSpaceOnUse">
<stop stop-color="#1A00FF"/>
<stop offset="1" stop-color="#035099"/>
</linearGradient>
<linearGradient id="paint2_linear_75_256" x1="28.577" y1="15" x2="28.577" y2="64.9281" gradientUnits="userSpaceOnUse">
<stop stop-color="#1A00FF"/>
<stop offset="1" stop-color="#035099"/>
</linearGradient>
<linearGradient id="paint3_linear_75_256" x1="51.423" y1="15" x2="51.423" y2="64.9281" gradientUnits="userSpaceOnUse">
<stop stop-color="#1A00FF"/>
<stop offset="1" stop-color="#035099"/>
</linearGradient>
</defs>
</svg>
